<?xml version="1.0" encoding="UTF-8"?>
<svg xmlns="http://www.w3.org/2000/svg" version="1.1" xmlns:xlink="http://www.w3.org/1999/xlink" viewBox="0 0 1220 450">
  <defs>
    <style>
      .cls-1 {
        fill: url(#_Безымянный_градиент_13-10);
      }

      .cls-2 {
        fill: url(#_Безымянный_градиент_13-2);
      }

      .cls-3 {
        fill: url(#_Безымянный_градиент_14);
      }

      .cls-4 {
        fill: none;
      }

      .cls-5 {
        fill: url(#_Безымянный_градиент_13-9);
      }

      .cls-6 {
        fill: url(#_Безымянный_градиент_13-11);
      }

      .cls-7 {
        fill: url(#_Безымянный_градиент_13-12);
      }

      .cls-8 {
        fill: url(#_Безымянный_градиент_13-6);
      }

      .cls-9 {
        fill: url(#_Безымянный_градиент_13-7);
      }

      .cls-10 {
        fill: url(#_Безымянный_градиент_13-8);
      }

      .cls-11 {
        fill: url(#_Безымянный_градиент_13);
      }

      .cls-12 {
        fill: url(#_Безымянный_градиент_13-5);
      }

      .cls-13 {
        fill: url(#_Безымянный_градиент_13-4);
      }

      .cls-14 {
        clip-path: url(#clippath);
      }

      .cls-15 {
        fill: #e2e2e2;
      }

      .cls-15, .cls-16 {
        display: none;
      }

      .cls-16 {
        fill: #dbdbdb;
      }

      .cls-17 {
        fill: url(#_Безымянный_градиент_13-13);
      }

      .cls-18 {
        fill: url(#_Безымянный_градиент_13-3);
      }
    </style>
    <clipPath id="clippath">
      <circle class="cls-4" cx="229.73" cy="218.67" r="187.67"/>
    </clipPath>
    <linearGradient id="_Безымянный_градиент_13" data-name="Безымянный градиент 13" x1="676.41" y1="966.33" x2="559.2" y2="900.37" gradientTransform="translate(382.05 1369.84) rotate(-36.07) scale(1 -1)" gradientUnits="userSpaceOnUse">
      <stop offset=".29" stop-color="#fff"/>
      <stop offset=".64" stop-color="#f0f0f0"/>
      <stop offset="1" stop-color="#e6e6e6"/>
    </linearGradient>
    <linearGradient id="_Безымянный_градиент_13-2" data-name="Безымянный градиент 13" x1="629.28" y1="854.25" x2="617" y2="847.33" xlink:href="#_Безымянный_градиент_13"/>
    <linearGradient id="_Безымянный_градиент_13-3" data-name="Безымянный градиент 13" x1="1022.99" y1="1026.05" x2="906.13" y2="960.27" gradientTransform="translate(939.45 1428.7) rotate(-70.07) scale(1 -1)" xlink:href="#_Безымянный_градиент_13"/>
    <linearGradient id="_Безымянный_градиент_13-4" data-name="Безымянный градиент 13" x1="1250.61" y1="972.66" x2="1138.43" y2="909.52" gradientTransform="translate(1659.18 1049.64) rotate(-107.02) scale(1.04 -1.1) skewX(2.59)" xlink:href="#_Безымянный_градиент_13"/>
    <linearGradient id="_Безымянный_градиент_13-5" data-name="Безымянный градиент 13" x1="1424.86" y1="925.7" x2="1312.69" y2="862.56" gradientTransform="translate(1850.28 334.86) rotate(-138.44) scale(1 -1)" xlink:href="#_Безымянный_градиент_13"/>
    <linearGradient id="_Безымянный_градиент_13-6" data-name="Безымянный градиент 13" x1="1474.66" y1="844.98" x2="1366.07" y2="783.85" gradientTransform="translate(1658.46 -581.79) rotate(-175.02) scale(1 -1)" xlink:href="#_Безымянный_градиент_13"/>
    <linearGradient id="_Безымянный_градиент_13-7" data-name="Безымянный градиент 13" x1="1378.87" y1="887.62" x2="1269.07" y2="825.82" gradientTransform="translate(845.13 -1251.24) rotate(150.12) scale(1 -1)" xlink:href="#_Безымянный_градиент_13"/>
    <linearGradient id="_Безымянный_градиент_13-8" data-name="Безымянный градиент 13" x1="1258.58" y1="1034.47" x2="1150.84" y2="973.83" gradientTransform="translate(-344.69 -1286.97) rotate(112.97) scale(1 -1)" xlink:href="#_Безымянный_градиент_13"/>
    <linearGradient id="_Безымянный_градиент_13-9" data-name="Безымянный градиент 13" x1="1201.71" y1="1281.51" x2="1094.04" y2="1220.91" gradientTransform="translate(-1253.66 -709.45) rotate(82.98) scale(1 -1)" xlink:href="#_Безымянный_градиент_13"/>
    <linearGradient id="_Безымянный_градиент_13-10" data-name="Безымянный градиент 13" x1="1273.13" y1="1582.1" x2="1165.46" y2="1521.49" gradientTransform="translate(-1797.07 330.77) rotate(51.49) scale(1 -1)" xlink:href="#_Безымянный_градиент_13"/>
    <linearGradient id="_Безымянный_градиент_13-11" data-name="Безымянный градиент 13" x1="1452.25" y1="1858.05" x2="1338.65" y2="1794.11" gradientTransform="translate(-1727.56 1517.43) rotate(21.4) scale(1 -1)" xlink:href="#_Безымянный_градиент_13"/>
    <linearGradient id="_Безымянный_градиент_13-12" data-name="Безымянный градиент 13" x1="347.4" y1="729.87" x2="225.73" y2="661.38" gradientTransform="translate(0 1002) scale(1 -1)" xlink:href="#_Безымянный_градиент_13"/>
    <linearGradient id="_Безымянный_градиент_13-13" data-name="Безымянный градиент 13" x1="342.64" y1="644.9" x2="342.64" y2="644.9" gradientTransform="translate(0 1002) scale(1 -1)" xlink:href="#_Безымянный_градиент_13"/>
    <radialGradient id="_Безымянный_градиент_14" data-name="Безымянный градиент 14" cx="214.03" cy="799.49" fx="214.03" fy="799.49" r="53.65" gradientTransform="translate(0 1002) scale(1 -1)" gradientUnits="userSpaceOnUse">
      <stop offset=".29" stop-color="#fff"/>
      <stop offset=".64" stop-color="#f0f0f0"/>
      <stop offset="1" stop-color="#e6e6e6"/>
    </radialGradient>
  </defs>
  <!-- Generator: Adobe Illustrator 28.7.1, SVG Export Plug-In . SVG Version: 1.2.0 Build 142)  -->
  <g>
    <g id="Text" fill="currentColor">
      <g fill="white">
        <path d="M461.9,168.7V44.39h54.19c9.06,0,16.93,1.52,23.61,4.55,6.68,3.04,11.82,7.33,15.42,12.87,3.6,5.55,5.4,12.11,5.4,19.7,0,5.72-1.19,10.8-3.57,15.23-2.38,4.44-5.64,8.05-9.76,10.86-4.12,2.8-8.86,4.55-14.2,5.25l-.52-1.58c8.25,0,14.52,1.78,18.82,5.34,4.3,3.56,6.74,9.02,7.32,16.37l3.14,35.72h-27.01l-2.27-31.52c-.35-4.78-1.83-8.32-4.44-10.59-2.61-2.28-7.06-3.41-13.33-3.41h-26.31v45.52h-26.49ZM488.38,100.94h24.74c6.39,0,11.35-1.49,14.9-4.46,3.54-2.98,5.31-7.21,5.31-12.69s-1.8-9.83-5.4-12.69c-3.6-2.86-8.83-4.29-15.68-4.29h-23.87v34.14Z"/>
        <path d="M583.35,168.7V44.39h26.49v59l-11.67-8.4h70.4l-11.85,8.4v-59h26.49v124.31h-26.49v-59.71l11.85,8.4h-70.4l11.67-8.4v59.71h-26.49Z"/>
        <path d="M734.42,168.7v-48.32l-43.04-75.99h29.27l27.01,50.08,26.83-50.08h29.27l-42.87,75.99v48.32h-26.49Z"/>
        <path d="M842.98,168.7v-101.9h-36.94v-22.41h100.72v22.41h-37.12v101.9h-26.66Z"/>
        <path d="M918.26,168.7V44.39h26.49v59l-11.68-8.4h70.4l-11.85,8.4v-59h26.49v124.31h-26.49v-59.71l11.85,8.4h-70.4l11.68-8.4v59.71h-26.49Z"/>
        <path d="M1041.46,168.7V44.39h35.37l31.54,90.52,31.37-90.52h35.37v124.31h-26.49v-80.54l-29.1,80.19h-22.65l-28.93-80.19v80.54h-26.49Z"/>
        <path d="M499.53,284.39c-14.41,0-25.38-2.89-32.93-8.67-7.55-5.78-11.33-14.03-11.33-24.78,0-5.37.84-10.15,2.53-14.36,1.68-4.2,4.44-8.17,8.28-11.91,3.83-3.73,8.83-7.47,14.99-11.21-2.67-2.92-4.97-5.81-6.88-8.67-1.92-2.86-3.4-5.78-4.44-8.75s-1.57-6.27-1.57-9.89c0-9.69,3.22-17.39,9.67-23.11,6.45-5.72,15.71-8.58,27.79-8.58,8.25,0,15.16,1.29,20.74,3.85,5.58,2.57,9.76,6.1,12.55,10.59,2.79,4.5,4.18,9.6,4.18,15.32,0,7.35-2.18,13.57-6.53,18.65s-11.06,10.19-20.13,15.32l19.52,24.51c2.9-4.32,4.41-10.51,4.53-18.56l26.49,2.63c-.47,6.65-1.92,13.07-4.36,19.26-2.44,6.19-5.64,11.5-9.58,15.93l16.9,19.61h-30.84l-4.53-5.43c-3.72,2.45-8.63,4.44-14.72,5.95-6.1,1.52-12.87,2.28-20.3,2.28ZM501.63,261.63c3.83,0,7.06-.41,9.67-1.23,2.61-.82,4.67-1.81,6.19-2.98l-22.65-28.01c-4.3,2.8-7.44,5.66-9.41,8.58-1.98,2.92-2.96,6.25-2.96,9.98,0,4.09,1.66,7.38,4.97,9.89,3.31,2.51,8.04,3.76,14.2,3.76ZM503.02,202.8c3.14-1.75,5.66-3.47,7.58-5.17,1.92-1.69,3.34-3.41,4.27-5.17.93-1.75,1.39-3.73,1.39-5.95,0-3.03-.9-5.4-2.7-7.09-1.8-1.69-4.27-2.54-7.41-2.54-3.49,0-6.19.94-8.1,2.8-1.92,1.87-2.88,4.38-2.88,7.53,0,1.64.23,3.24.7,4.81.46,1.58,1.31,3.24,2.53,4.99,1.22,1.75,2.76,3.68,4.62,5.78Z"/>
        <path d="M461.9,394.48v-124.31h54.19c9.06,0,16.93,1.52,23.61,4.55,6.68,3.04,11.82,7.33,15.42,12.87,3.6,5.55,5.4,12.11,5.4,19.7,0,5.72-1.19,10.8-3.57,15.23-2.38,4.44-5.64,8.05-9.76,10.86-4.12,2.8-8.86,4.55-14.2,5.25l-.52-1.58c8.25,0,14.52,1.78,18.82,5.34,4.3,3.56,6.74,9.02,7.32,16.37l3.14,35.72h-27.01l-2.27-31.52c-.35-4.78-1.83-8.32-4.44-10.59-2.61-2.28-7.06-3.41-13.33-3.41h-26.31v45.52h-26.49ZM488.38,326.72h24.74c6.39,0,11.35-1.49,14.9-4.46,3.54-2.98,5.31-7.21,5.31-12.69s-1.8-9.83-5.4-12.69c-3.6-2.86-8.83-4.29-15.68-4.29h-23.87v34.14Z"/>
        <path d="M635.45,397.28c-12.55,0-23.32-2.63-32.32-7.88-9-5.25-15.92-12.72-20.74-22.41-4.82-9.69-7.23-21.19-7.23-34.49s2.41-24.83,7.23-34.58c4.82-9.75,11.73-17.27,20.74-22.59,9-5.31,19.78-7.97,32.32-7.97s23.32,2.66,32.32,7.97c9,5.31,15.91,12.84,20.74,22.59,4.82,9.75,7.23,21.27,7.23,34.58s-2.41,24.81-7.23,34.49c-4.82,9.69-11.73,17.16-20.74,22.41-9,5.25-19.78,7.88-32.32,7.88ZM635.28,374.87c6.97,0,12.92-1.66,17.86-4.99,4.94-3.33,8.71-8.14,11.33-14.44,2.61-6.3,3.92-13.95,3.92-22.94s-1.31-16.66-3.92-23.02c-2.61-6.36-6.39-11.23-11.33-14.62-4.94-3.38-10.89-5.08-17.86-5.08s-12.72,1.69-17.6,5.08c-4.88,3.39-8.63,8.26-11.24,14.62-2.61,6.36-3.92,14.04-3.92,23.02s1.31,16.63,3.92,22.94c2.61,6.3,6.39,11.12,11.33,14.44,4.94,3.33,10.77,4.99,17.51,4.99Z"/>
        <path d="M699.05,394.48l44.61-124.31h31.37l44.61,124.31h-27.53l-9.06-26.44h-47.57l-9.06,26.44h-27.36ZM742.96,346.16h32.76l-16.38-47.97-16.38,47.97Z"/>
        <path d="M831.31,394.48v-124.31h35.37l31.54,90.52,31.37-90.52h35.37v124.31h-26.49v-80.54l-29.1,80.19h-22.65l-28.93-80.19v80.54h-26.49Z"/>
      </g>
    </g>
    <g id="Logo">
      <g id="Logo-2" data-name="Logo">
        <g id="circles">
          <g class="cls-14">
            <g>
              <path class="cls-11" d="M372.96,340.22c.28-.38.56-.76.84-1.13,2.56-3.48,5.06-7.01,7.64-10.48,2.82-3.8,5.68-7.58,8.82-11.12,2.62-4.57,5.16-9.17,7.81-13.72,1.76-3.01,3.55-6.01,5.06-9.15.23-.49.45-.98.68-1.46.51-1.09-.21.54-.25.57.38-.27.64-1.78.78-2.23.46-1.48.78-2.98.99-4.51.16-1.19.61-2.23,1.24-3.14l5.97-20.92c.04-.1.07-.2.1-.29.09-.46.19-.9.33-1.34.07-.31.14-.61.2-.92l-153.44-37.9s-.22.6-16.2,23.44l103.37,114.89c.45,1.14.98,2.07,1.58,2.82.13-.07.26-.14.4-.2.78-.35,1.54-.73,2.27-1.17.19-.12.81-.55,1.2-.82.38-.33.96-.8,1.12-.96.62-.57,1.23-1.16,1.82-1.76,2.45-2.47,4.68-5.15,7-7.75,3.36-3.76,7.02-7.26,10.65-10.77h0Z"/>
              <path class="cls-2" d="M379.75,323.99c2.46-3.52,4.8-7.12,7.07-10.77l-7.07,10.77Z"/>
              <path class="cls-18" d="M414.3,250.37c.5-3.37.96-6.75,1.44-10.12.25-1.75.49-3.51.75-5.26.13-.88.27-1.75.4-2.63.02-.16.15-1.1.21-1.53.06-.57.16-1.42.18-1.58.09-.9.18-1.8.24-2.69.13-1.65.22-3.3.27-4.96.1-3.59,0-7.2-.35-10.78-.01-.13-.1-.82-.15-1.29-.09-.52-.24-1.48-.27-1.63-.36-2.1-.66-4.2-.91-6.32-.41-3.47-.32-6.72.12-10.13-1.35-6.85-2.86-13.68-4.33-20.5-.83-3.85-2.06-7.6-3.16-11.38-.55-1.86-1.13-3.7-1.8-5.52,0-.02-.01-.04-.02-.06-.08-.13-.18-.33-.34-.63-.39-.76-.83-1.48-1.3-2.19-.76-1.15-1.19-2.39-1.35-3.66l-136.4,50c-.03,3.94-.55,7.89-1.42,11.71-.94,4.07-4.31,16.68-4.35,19.31l149.84,37.41c1.07-5.17,1.94-10.38,2.71-15.6h-.01Z"/>
              <path class="cls-13" d="M403.99,148.03c-.02-.09-.03-.19-.04-.28-.28-.49-.54-.98-.77-1.5-.54-1.19-1.02-2.39-1.47-3.61-.04-.1-.14-.42-.25-.77.23.84-.62-1.12-.84-1.47-.4-.64-.82-1.25-1.22-1.89-1.15-1.83-2.12-3.86-2.67-5.96-.14-.27-.27-.54-.39-.83-.34-.81-.67-1.61-.96-2.42-.92-.89-1.56-1.95-1.97-3.08-2.05-1.77-3.14-4.31-3.28-6.95-3.16-3.4-6.36-6.75-9.25-10.38-3.19-3.99-6.45-8.39-8.33-13.25-.13-.17-.26-.34-.38-.52-.04-.06-.3-.42-.51-.72-.08-.1-.16-.2-.21-.25-.62-.72-1.26-1.42-1.93-2.09-1.46-1.49-3.02-2.87-4.62-4.21-.48-.4-.97-.79-1.45-1.18-.09-.07-.3-.24-.5-.39-.18-.14-.35-.27-.43-.33-.4-.3-.8-.6-1.2-.9-1.57-1.17-3.16-2.31-4.74-3.47-2.02-1.48-4.03-2.98-5.99-4.55.52.46-1.37-1.1-.45-.35.15.12.3.23.45.35-.06-.05-.13-.12-.25-.21-.88-.75-1.84-1.42-2.75-2.13-.95-.74-1.89-1.47-2.83-2.22-3.81-3.02-7.57-6.11-11.39-9.13-.49-.39-.99-.78-1.48-1.16.22.18.23.19-.58-.45-.01,0-.03-.02-.04-.03-.92-.7-1.85-1.4-2.78-2.09-.04-.03-.08-.06-.12-.09l-77.89,106.54c3.85,2.99,7.24,6.49,9.9,10.59,4.39,6.74,5.76,14.51,5.18,22.19l138.44-50.82h0Z"/>
              <path class="cls-12" d="M322.82,55.63c-3.94-2.53-8.12-4.75-12.32-6.8-2.22-1.08-4.47-2.24-6.79-3.1,2.06.77-.88-.35-1.43-.57-1.03-.41-2.07-.81-3.1-1.19-8.83-3.3-17.94-5.85-27.15-7.81-4.45-.94-8.92-1.74-13.42-2.42-.68-.1-1.35-.2-2.03-.29-1.44-.21-.78-.12-.22-.04-1.13-.18-2.28-.27-3.41-.41-2.27-.28-4.55-.56-6.83-.82-6.5-.74-13.03-1.37-19.57-1.74l-3.29,125.83c3.45.69,6.83,1.6,10.09,2.72,6.09,2.11,12,4.96,17.12,8.8l77.74-108.4c-1.76-1.29-3.53-2.59-5.36-3.76h0Z"/>
              <path class="cls-8" d="M225.51,22.57c-.84.25-1.7.37-2.58.35-3.65-.1-7.3.02-10.94.31-1.9.15-3.8.35-5.69.57-.96.12-1.91.25-2.87.37-.08.01-.14.02-.2.02-.14.02-.27.05-.41.07-3.8.58-7.58,1.27-11.35,2-5.42,1.06-10.87,2.08-16.26,3.4-2.95,1.16-5.87,2.39-8.81,3.59-3.65,2.13-7.41,4.05-11.23,5.84-3.28,1.54-6.58,3-9.88,4.47-1.25.55-2.5,1.11-3.75,1.66-.23.1-.51.22-.75.33-.7.31-1.4.63-2.09.95-1.28.59-2.55,1.19-3.82,1.8-.49,1.44-1.24,2.76-2.29,3.81-1.42,1.42-2.9,2.76-4.42,4.04l68.38,101.59c.15-.04.29-.08.44-.11,1.85-1.66,4.27-2.69,6.73-2.88,7.88-.59,16.12.33,23.88,2.47l-2.09-134.67h0Z"/>
              <path class="cls-9" d="M128.89,58.18c-5.33,4.57-11.3,8.34-17.4,11.83-1.31.75-2.61,1.49-3.92,2.23-.33.24-.67.46-1.02.66-4.82,6.03-10.62,11.41-17.09,15.58-.08.09-.16.19-.23.28-6.54,7.99-12.72,16.23-20.17,23.42-.18.18-.37.35-.55.53-.1.16-.2.33-.3.49-.16,1.35-.55,2.67-1.15,3.89-3.2,6.54-6.6,12.97-10.01,19.4l114.87,40.59c3.44-6.72,8.44-12.62,15.22-16.19,3.14-1.65,6.42-2.79,9.78-3.59.82-.69,1.75-1.26,2.74-1.7l-70.77-97.44Z"/>
              <path class="cls-10" d="M59.86,138.11c-1.58,3.01-3.18,6-4.72,9.03-.38.74-.73,1.5-1.09,2.24-.11.29-.24.57-.38.84-.55,1.43-1.09,2.87-1.57,4.33-3.69,11.18-5.23,22.96-7.97,34.39.2.8.28,1.63.21,2.47-.62,7.61-2,15.12-3.2,22.65.02,1.82.06,3.64.1,5.46.34.99.55,2.04.6,3.12.05,1.05-.11,2.08-.43,3.04.06.41.13.83.19,1.24.8,5.13,1.63,10.27,1.79,15.46l.43,1.87,122.07-38.65c.12-6.17,1.22-12.39,2.67-17.9,1.33-5,3.36-9.98,6.17-14.4l-114.87-35.2h0Z"/>
              <path class="cls-5" d="M168.11,220.72c-1.79-4.85-2.38-10.28-2.22-15.74l-123.15,29.82c.32,2.52.56,5.05.64,7.6.54,2.37,1.09,4.74,1.63,7.12,2.19,9.72,4,19.49,6.56,29.13.37,1.41.76,2.82,1.15,4.23,5.18,10.11,9.88,20.45,13.86,31.12,6.28,7.31,11.99,15.14,16.67,23.53.33.59.59,1.18.79,1.79l92.36-106.7c-3.59-3.18-6.51-7.06-8.29-11.9h0Z"/>
              <path class="cls-1" d="M172.63,235.89l-93.87,94.22c1.58,2.42,3.09,4.9,4.5,7.42.34.62.62,1.25.82,1.88,6.63,6.47,13.18,13.02,19.78,19.51.43.42.79.86,1.12,1.33.61.29,1.22.57,1.84.84,2.62,1.13,4.1,3.54,4.62,6.2,17.62,12.92,37.43,22.71,59.44,29.35l24.12-145.85s-.56-.2-22.36-14.91h0Z"/>
              <path class="cls-6" d="M219.06,254.64s-.62.11-28.3-1.78l-36.88,139.51c5.65,2.29,11.4,4.42,17.38,5.66,1.37.28,2.56.88,3.56,1.69,32.42,8.54,65.55,8.81,99.38.82l-55.13-145.9h0Z"/>
              <path class="cls-7" d="M245.47,240.13s-.56.38-28.42,10.17l15.06,156.58c3.44-.03,6.88-.16,10.32-.42,1.61-.12,3.22-.27,4.83-.43.88-.09,1.75-.19,2.63-.29.38-.04,1.04-.12,1.38-.16,2.13-.28,4.24-.61,6.36-.96,8.44-1.79,16.88-3.52,25.2-5.84,4.96-1.39,9.88-2.91,14.69-4.76.64-.25,1.27-.49,1.9-.75.06-.02.18-.07.32-.13.33-.14,1.37-.58,1.39-.59.49-.21.98-.44,1.48-.66,1.95-.88,3.89-1.81,5.81-2.78,8.8-4.43,17.04-9.8,25.5-14.83,4.2-2.5,8.59-4.72,12.53-7.63.52-.39,1.06-.77,1.56-1.18-2.25,1.85,1.05-.81,1.24-.96.02-.02.04-.03.06-.05l-103.8-124.32h0Z"/>
              <path class="cls-17" d="M342.64,357.1h0Z"/>
            </g>
          </g>
          <circle id="innerCircle_x5F__x5F_circle" class="cls-15" cx="212.39" cy="200.4" r="44.28" transform="translate(-4.84 395.54) rotate(-85.27)"/>
          <path id="innerCircleBg" class="cls-16" d="M214.03,154.24c-26.01,0-47.09,21.08-47.09,47.09s21.08,47.09,47.09,47.09,47.09-21.08,47.09-47.09-21.08-47.09-47.09-47.09h0ZM212.59,238.35c-21.47,0-38.87-17.4-38.87-38.87s17.4-38.87,38.87-38.87,38.87,17.4,38.87,38.87-17.4,38.87-38.87,38.87Z"/>
          <path id="innerCircleBg-2" class="cls-3" d="M214.03,148.85c-29.63,0-53.65,24.02-53.65,53.65s24.02,53.65,53.65,53.65,53.65-24.02,53.65-53.65-24.02-53.65-53.65-53.65h0ZM212.39,244.68c-24.45,0-44.28-19.83-44.28-44.28s19.83-44.28,44.28-44.28,44.28,19.83,44.28,44.28-19.83,44.28-44.28,44.28h0Z"/>
        </g>
      </g>
    </g>
  </g>
</svg>