<?xml version="1.0" encoding="UTF-8"?>
<svg xmlns="http://www.w3.org/2000/svg" version="1.1" xmlns:xlink="http://www.w3.org/1999/xlink" viewBox="0 0 1000 1000">
  <defs>
    <style>
      .cls-1 {
        fill: url(#_Безымянный_градиент_15);
      }

      .cls-2 {
        fill: url(#_Безымянный_градиент_15-3);
      }

      .cls-3 {
        fill: url(#_Безымянный_градиент_15-6);
      }

      .cls-4 {
        fill: url(#_Безымянный_градиент_15-2);
      }

      .cls-5 {
        fill: url(#_Безымянный_градиент_15-8);
      }

      .cls-6 {
        fill: none;
      }

      .cls-7 {
        fill: url(#_Безымянный_градиент_15-9);
      }

      .cls-8 {
        fill: url(#_Безымянный_градиент_16);
      }

      .cls-9 {
        fill: url(#_Безымянный_градиент_15-10);
      }

      .cls-10 {
        fill: url(#_Безымянный_градиент_15-5);
      }

      .cls-11 {
        fill: url(#_Безымянный_градиент_15-11);
      }

      .cls-12 {
        fill: url(#_Безымянный_градиент_15-13);
      }

      .cls-13 {
        fill: url(#_Безымянный_градиент_15-7);
      }

      .cls-14 {
        fill: url(#_Безымянный_градиент_15-12);
      }

      .cls-15 {
        clip-path: url(#clippath);
      }

      .cls-16 {
        fill: #e2e2e2;
      }

      .cls-16, .cls-17 {
        display: none;
      }

      .cls-17 {
        fill: #dbdbdb;
      }

      .cls-18 {
        fill: url(#_Безымянный_градиент_15-4);
      }
    </style>
    <clipPath id="clippath">
      <circle id="BigSircle" class="cls-6" cx="507.34" cy="500.5" r="471.5"/>
    </clipPath>
    <linearGradient id="_Безымянный_градиент_15" data-name="Безымянный градиент 15" x1="918.22" y1="508.72" x2="623.76" y2="674.46" gradientTransform="translate(-207.5 559.14) rotate(-36.07)" gradientUnits="userSpaceOnUse">
      <stop offset=".29" stop-color="#fff"/>
      <stop offset=".64" stop-color="#f0f0f0"/>
      <stop offset="1" stop-color="#e6e6e6"/>
    </linearGradient>
    <linearGradient id="_Безымянный_градиент_15-2" data-name="Безымянный градиент 15" x1="799.82" y1="790.32" x2="768.95" y2="807.69" xlink:href="#_Безымянный_градиент_15"/>
    <linearGradient id="_Безымянный_градиент_15-3" data-name="Безымянный градиент 15" x1="1043.65" y1="414.38" x2="750.05" y2="579.63" gradientTransform="translate(-2.26 1085.55) rotate(-70.07)" xlink:href="#_Безымянный_градиент_15"/>
    <linearGradient id="_Безымянный_градиент_15-4" data-name="Безымянный градиент 15" x1="1116.85" y1="270.51" x2="835.02" y2="429.13" gradientTransform="translate(591.22 1324.91) rotate(-107.02) scale(1.04 1.1) skewX(-2.59)" xlink:href="#_Безымянный_градиент_15"/>
    <linearGradient id="_Безымянный_градиент_15-5" data-name="Безымянный градиент 15" x1="1232.23" y1="142.95" x2="950.41" y2="301.57" gradientTransform="translate(1184.46 1082.21) rotate(-138.44)" xlink:href="#_Безымянный_градиент_15"/>
    <linearGradient id="_Безымянный_градиент_15-6" data-name="Безымянный градиент 15" x1="1354.23" y1="14.06" x2="1081.4" y2="167.62" gradientTransform="translate(1569.57 414.34) rotate(-175.02)" xlink:href="#_Безымянный_градиент_15"/>
    <linearGradient id="_Безымянный_градиент_15-7" data-name="Безымянный градиент 15" x1="1448.05" y1="-149.26" x2="1172.19" y2="6" gradientTransform="translate(1341.95 -383.8) rotate(150.12)" xlink:href="#_Безымянный_градиент_15"/>
    <linearGradient id="_Безымянный_градиент_15-8" data-name="Безымянный градиент 15" x1="1555.21" y1="-276.31" x2="1284.54" y2="-123.96" gradientTransform="translate(575.55 -896.41) rotate(112.97)" xlink:href="#_Безымянный_градиент_15"/>
    <linearGradient id="_Безымянный_градиент_15-9" data-name="Безымянный градиент 15" x1="1665.51" y1="-405.64" x2="1395" y2="-253.38" gradientTransform="translate(-261.04 -831.8) rotate(82.98)" xlink:href="#_Безымянный_градиент_15"/>
    <linearGradient id="_Безымянный_градиент_15-10" data-name="Безымянный градиент 15" x1="1816.41" y1="-511.62" x2="1545.9" y2="-359.36" gradientTransform="translate(-1014.17 -292.72) rotate(51.49)" xlink:href="#_Безымянный_градиент_15"/>
    <linearGradient id="_Безымянный_градиент_15-11" data-name="Безымянный градиент 15" x1="1970.8" y1="-596.6" x2="1685.38" y2="-435.95" gradientTransform="translate(-1362.39 584.81) rotate(21.4)" xlink:href="#_Безымянный_градиент_15"/>
    <linearGradient id="_Безымянный_градиент_15-12" data-name="Безымянный градиент 15" x1="802.97" y1="634.81" x2="497.28" y2="806.87" gradientTransform="matrix(1,0,0,1,0,0)" xlink:href="#_Безымянный_градиент_15"/>
    <linearGradient id="_Безымянный_градиент_15-13" data-name="Безымянный градиент 15" x1="791.01" y1="848.3" x2="791.01" y2="848.3" gradientTransform="matrix(1,0,0,1,0,0)" xlink:href="#_Безымянный_градиент_15"/>
    <radialGradient id="_Безымянный_градиент_16" data-name="Безымянный градиент 16" cx="467.9" cy="459.88" fx="467.9" fy="459.88" r="134.8" gradientUnits="userSpaceOnUse">
      <stop offset=".29" stop-color="#fff"/>
      <stop offset=".64" stop-color="#f0f0f0"/>
      <stop offset="1" stop-color="#e6e6e6"/>
    </radialGradient>
  </defs>
  <!-- Generator: Adobe Illustrator 28.7.1, SVG Export Plug-In . SVG Version: 1.2.0 Build 142)  -->
  <g>
    <g id="circles">
      <g class="cls-15">
        <path class="cls-1" d="M867.19,805.89c.7-.95,1.41-1.9,2.11-2.85,6.43-8.75,12.72-17.61,19.19-26.33,7.08-9.55,14.26-19.05,22.16-27.94,6.57-11.47,12.96-23.05,19.63-34.46,4.42-7.56,8.92-15.09,12.71-22.98.58-1.22,1.13-2.45,1.7-3.67,1.28-2.73-.54,1.36-.62,1.42.96-.68,1.61-4.46,1.97-5.61,1.15-3.71,1.96-7.48,2.49-11.33.41-2.98,1.52-5.6,3.11-7.88l15-52.55c.09-.24.17-.49.26-.73.22-1.15.48-2.27.82-3.36.17-.77.34-1.54.51-2.32l-385.49-95.21s-.56,1.52-40.69,58.88l259.7,288.64c1.14,2.87,2.47,5.21,3.97,7.09.33-.17.66-.34,1-.49,1.97-.87,3.87-1.83,5.71-2.94.48-.29,2.03-1.38,3.01-2.05.96-.82,2.4-2.02,2.81-2.4,1.57-1.43,3.09-2.91,4.58-4.41,6.16-6.21,11.77-12.93,17.59-19.46,8.43-9.45,17.63-18.23,26.76-27.05Z"/>
        <path class="cls-4" d="M884.24,765.11c6.18-8.85,12.07-17.89,17.76-27.06l-17.76,27.06Z"/>
        <path class="cls-2" d="M971.04,580.15c1.25-8.47,2.42-16.95,3.62-25.42.62-4.4,1.24-8.81,1.89-13.21.32-2.2.67-4.4,1-6.6.06-.39.38-2.77.53-3.84.16-1.44.4-3.56.44-3.96.23-2.25.44-4.51.61-6.76.32-4.14.55-8.29.67-12.45.25-9.03,0-18.09-.88-27.08-.03-.33-.24-2.07-.38-3.25-.22-1.3-.6-3.71-.67-4.1-.9-5.27-1.66-10.56-2.29-15.87-1.04-8.73-.81-16.89.31-25.45-3.38-17.21-7.18-34.38-10.87-51.5-2.09-9.68-5.18-19.09-7.95-28.58-1.37-4.68-2.85-9.29-4.52-13.87-.02-.05-.03-.09-.05-.14-.19-.32-.46-.82-.85-1.58-.99-1.9-2.09-3.72-3.27-5.5-1.91-2.89-2.99-6.01-3.39-9.19l-342.68,125.61c-.08,9.89-1.37,19.82-3.58,29.42-2.36,10.23-10.82,41.91-10.93,48.52l376.46,93.98c2.7-12.98,4.87-26.07,6.81-39.19Z"/>
        <path class="cls-18" d="M945.15,323.02c-.04-.23-.08-.47-.11-.71-.7-1.22-1.36-2.47-1.93-3.76-1.35-2.99-2.57-6-3.69-9.07-.09-.25-.36-1.06-.64-1.93.58,2.11-1.56-2.82-2.1-3.69-1-1.6-2.07-3.15-3.07-4.75-2.88-4.61-5.33-9.71-6.72-14.98-.35-.67-.69-1.36-.99-2.09-.86-2.03-1.68-4.04-2.42-6.09-2.31-2.24-3.93-4.89-4.96-7.74-5.14-4.45-7.88-10.83-8.23-17.45-7.93-8.54-15.97-16.97-23.25-26.08-8.01-10.02-16.21-21.07-20.92-33.29-.33-.43-.65-.86-.95-1.3-.11-.15-.76-1.06-1.29-1.8-.21-.26-.41-.5-.53-.64-1.55-1.81-3.17-3.56-4.84-5.26-3.67-3.74-7.58-7.22-11.61-10.57-1.21-1-2.43-1.99-3.65-2.97-.23-.18-.76-.6-1.25-.98-.44-.34-.89-.68-1.09-.83-1-.75-2.01-1.5-3.01-2.25-3.95-2.93-7.93-5.81-11.9-8.71-5.07-3.72-10.13-7.49-15.05-11.42,1.3,1.15-3.44-2.76-1.12-.89.37.3.75.59,1.12.89-.14-.12-.33-.29-.62-.54-2.21-1.89-4.62-3.56-6.92-5.34-2.38-1.85-4.74-3.7-7.1-5.57-9.58-7.59-19.03-15.36-28.62-22.95-1.23-.98-2.48-1.95-3.72-2.92.55.44.58.47-1.45-1.14-.03-.02-.07-.05-.09-.07-2.32-1.76-4.64-3.52-6.98-5.25-.1-.07-.2-.15-.3-.22l-195.7,267.66c9.67,7.52,18.18,16.31,24.87,26.6,11.02,16.94,14.47,36.45,13.02,55.76l347.81-127.68Z"/>
        <path class="cls-10" d="M741.21,90.88c-9.9-6.36-20.39-11.93-30.96-17.08-5.58-2.72-11.24-5.63-17.06-7.8,5.17,1.93-2.2-.87-3.6-1.43-2.59-1.03-5.19-2.03-7.79-3-22.19-8.3-45.06-14.71-68.22-19.62-11.17-2.37-22.42-4.38-33.72-6.07-1.7-.26-3.4-.5-5.11-.74-3.63-.52-1.95-.3-.56-.09-2.84-.44-5.73-.69-8.57-1.04-5.71-.71-11.43-1.4-17.15-2.05-16.34-1.87-32.74-3.45-49.16-4.36l-8.26,316.13c8.66,1.73,17.17,4.02,25.34,6.84,15.3,5.29,30.14,12.45,43,22.12l195.31-272.35c-4.41-3.25-8.86-6.5-13.47-9.45Z"/>
        <path class="cls-3" d="M496.75,7.81c-2.1.62-4.28.93-6.48.87-9.17-.26-18.33.05-27.48.79-4.77.38-9.54.87-14.3,1.44-2.41.29-4.81.62-7.21.93-.2.03-.36.05-.5.06-.35.06-.69.12-1.03.18-9.54,1.46-19.04,3.18-28.52,5.03-13.61,2.66-27.32,5.23-40.84,8.55-7.4,2.92-14.75,6-22.14,9.03-9.18,5.35-18.62,10.17-28.21,14.67-8.23,3.86-16.53,7.54-24.83,11.22-3.14,1.39-6.29,2.78-9.43,4.17-.58.26-1.27.56-1.88.83-1.76.78-3.51,1.59-5.26,2.39-3.21,1.47-6.41,2.98-9.59,4.51-1.22,3.62-3.12,6.94-5.76,9.58-3.57,3.56-7.28,6.94-11.1,10.16l171.79,255.24c.37-.1.74-.19,1.1-.28,4.66-4.18,10.74-6.77,16.91-7.23,19.81-1.48,40.51.83,60,6.21l-5.25-338.35Z"/>
        <path class="cls-13" d="M254,97.28c-13.39,11.49-28.4,20.95-43.72,29.72-3.28,1.88-6.56,3.74-9.85,5.6-.82.6-1.68,1.15-2.57,1.67-12.11,15.14-26.67,28.66-42.94,39.15-.19.23-.39.47-.58.7-16.43,20.07-31.95,40.77-50.67,58.83-.46.45-.92.89-1.38,1.34-.25.41-.5.83-.75,1.24-.41,3.38-1.39,6.72-2.88,9.78-8.03,16.43-16.58,32.59-25.15,48.75l288.6,101.99c8.65-16.88,21.21-31.71,38.24-40.67,7.88-4.14,16.12-7.01,24.58-9.01,2.06-1.73,4.39-3.17,6.88-4.28L254,97.28Z"/>
        <path class="cls-5" d="M80.55,298.11c-3.98,7.55-8,15.07-11.86,22.68-.95,1.87-1.83,3.76-2.75,5.64-.28.72-.61,1.42-.95,2.12-1.38,3.6-2.73,7.21-3.95,10.87-9.28,28.09-13.13,57.68-20.03,86.4.5,2.02.7,4.1.53,6.2-1.56,19.13-5.02,37.98-8.03,56.91.04,4.57.14,9.15.24,13.72.86,2.49,1.39,5.12,1.51,7.85.12,2.65-.28,5.22-1.08,7.64.16,1.04.32,2.08.48,3.12,2.01,12.88,4.1,25.81,4.5,38.84.36,1.57.72,3.14,1.08,4.71l306.68-97.11c.29-15.49,3.06-31.14,6.72-44.97,3.33-12.56,8.43-25.07,15.51-36.19l-288.6-88.44Z"/>
        <path class="cls-7" d="M352.52,505.66c-4.49-12.18-5.98-25.82-5.57-39.54l-309.39,74.91c.8,6.34,1.4,12.7,1.6,19.09,1.36,5.96,2.74,11.92,4.09,17.88,5.51,24.41,10.06,48.97,16.47,73.18.94,3.55,1.91,7.09,2.9,10.63,13.01,25.39,24.82,51.37,34.81,78.19,15.79,18.37,30.13,38.04,41.89,59.11.82,1.47,1.47,2.97,1.98,4.49l232.05-268.06c-9.03-8-16.35-17.75-20.83-29.89Z"/>
        <path class="cls-9" d="M363.88,543.76l-235.85,236.71c3.98,6.09,7.76,12.3,11.3,18.64.86,1.55,1.55,3.13,2.07,4.73,16.65,16.25,33.12,32.71,49.69,49.01,1.07,1.05,1.98,2.17,2.81,3.34,1.53.73,3.07,1.44,4.63,2.12,6.57,2.85,10.29,8.89,11.61,15.58,44.28,32.46,94.05,57.05,149.34,73.74l60.59-366.43s-1.41-.51-56.18-37.45Z"/>
        <path class="cls-11" d="M480.53,590.87s-1.55.28-71.1-4.47l-92.65,350.51c14.2,5.76,28.63,11.11,43.66,14.22,3.44.71,6.43,2.21,8.95,4.25,81.46,21.46,164.68,22.13,249.67,2.06l-138.52-366.56Z"/>
        <path class="cls-14" d="M546.89,554.42s-1.4.95-71.4,25.55l37.83,393.38c8.65-.07,17.29-.4,25.92-1.05,4.05-.3,8.1-.67,12.13-1.09,2.2-.23,4.4-.48,6.6-.74.96-.11,2.61-.31,3.46-.41,5.34-.7,10.66-1.52,15.98-2.42,21.2-4.5,42.4-8.85,63.3-14.68,12.47-3.48,24.82-7.31,36.9-11.97,1.6-.62,3.19-1.24,4.77-1.88.15-.06.46-.18.81-.32.83-.36,3.43-1.45,3.48-1.47,1.24-.54,2.47-1.1,3.71-1.65,4.91-2.22,9.78-4.55,14.6-6.98,22.1-11.14,42.81-24.63,64.06-37.26,10.56-6.28,21.58-11.85,31.47-19.18,1.31-.97,2.66-1.93,3.92-2.96-5.66,4.65,2.64-2.04,3.11-2.4.05-.04.1-.08.15-.12l-260.79-312.33Z"/>
        <path class="cls-12" d="M791.01,848.3h0Z"/>
      </g>
      <circle id="innerCircle_x5F__x5F_circle" class="cls-16" cx="463.78" cy="454.59" r="111.25"/>
      <path id="innerCircleBg" class="cls-17" d="M467.9,338.62c-65.35,0-118.32,52.97-118.32,118.32s52.97,118.32,118.32,118.32,118.32-52.97,118.32-118.32-52.97-118.32-118.32-118.32ZM464.29,549.94c-53.93,0-97.65-43.72-97.65-97.65s43.72-97.65,97.65-97.65,97.65,43.72,97.65,97.65-43.72,97.65-97.65,97.65Z"/>
      <path id="innerCircleBg-2" data-name="innerCircleBg" class="cls-8" d="M467.9,325.09c-74.45,0-134.8,60.35-134.8,134.8s60.35,134.8,134.8,134.8,134.8-60.35,134.8-134.8-60.35-134.8-134.8-134.8ZM463.78,565.84c-61.44,0-111.25-49.81-111.25-111.25s49.81-111.25,111.25-111.25,111.25,49.81,111.25,111.25-49.81,111.25-111.25,111.25Z"/>
    </g>
  </g>
</svg>